<svg id="tweaked_sketch" data-name="tweaked sketch" xmlns="http://www.w3.org/2000/svg" viewBox="0 0 269 450"><defs><style>.cls-1{fill:#fff;}</style></defs><title>headshot_sketch</title><path d="M115,436.74c1.2-4.22,3.46-7.88,5.66-11.64,1.65-2.83,3.42-6-2.1-7.49-4.07-1.12-4.92-5.1-5.06-8.93-0.16-4.32-.15-8.65-0.26-13-0.06-2.36.69-4.42,2.72-5.55a11.42,11.42,0,0,0,6.13-9.09A6,6,0,0,1,127,376c4.18-1.08,8.19-2.91,12.61-2.91,2.77,0,4.65-1.64,6.43-3.41A225,225,0,0,1,179,342.17c10.17-6.83,19.45-14.91,30.21-20.93,5-2.8,9.14-7.17,13.77-10.68,2.91-2.21,6.18-4,9-6.25,5.21-4.21,10.27-2.56,15.33,0,1.57,0.8,2.25,1.75,2.09,4.22-0.62,9.51-5.22,16.32-12.3,22.15-2.12,1.75-5.39,4-2,7.82,1.24,1.39.49,2.88-1.75,2.78-1.59-.07-3.09.16-3.68,1.89-3.35,9.85-10.85,17.31-15.4,26.56a32.16,32.16,0,0,1-11.34,12.93,6.55,6.55,0,0,0-2.84,3.38c-0.51,1.45-1,3.06.57,4.08s2.49-.33,3.4-1.25c9.77-10,22.22-14.73,35.46-17.85,3.12-.74,6.73-1.75,8.71,1.43,1.77,2.84-1.53,5.34-2.24,8.09-0.48,1.85-3,2.63-3.26,5,4.69,2,9.26-.67,13.91-0.41,2.88,0.16,2.28-2.76,2.3-4.62q0.29-36.47.5-72.94c0-2.3-.47-4.67.57-6.89q0,66.25.08,132.5c0,3-.6,3.59-3.58,3.58Q185.75,436.64,115,436.74ZM247.3,306.65c-8.91-5.1-10-5.08-13,.21C238.54,306.92,242.6,310.39,247.3,306.65Z"/><path d="M141.32,261.22c9.68-18.05,17.27-35.13,10.5-55.19,6.91,2.31,11.37,13.39,9.64,24.58-1.41,9.13-3.27,18.23-9.28,26.7,7.35-.41,13.62-0.37,19.28-4.16-1.05,9.4-7.24,15.34-13.2,21.38-1.76,1.78-3.81,3.29-4.35,5.9a2.77,2.77,0,0,1-2.77,2.39c-1.54.11-2.52,0.62-2.55,2.35a2.75,2.75,0,0,0,2,3c3,1,2.36,3,1.31,5.21-1.62,3.39-4.29,6.43-3.67,10.64a2.39,2.39,0,0,1-.77,1.77c-5.48,5-8.61,11.43-11.52,18.09-1.53,3.5-11.52,2.73-14.76-1-0.76-.87-1.27-2-2-2.86-2.86-3.47-6.18-3.19-8.36.67-2.37,4.19-7.83,4.44-12,2.6-7.52-3.32-14.33-8-22.12-10.83-8.05-2.93-16.14-6-18.6-16-1.41-5.73-5.31-10.14-10-13.95-9.26-7.58-18-15.66-24.34-26.05-2.41-3.95-3.54-8.2-4.76-12.49-0.55-1.91-.74-3.9-1.89-5.63-0.73-1.1-1.6-2.43-.1-3.52,1.31-.95,2.5-0.19,3.57.74s1.64,3.43,3.81,2.26c1.64-.88,1.64-2.85,1.58-4.49a12.71,12.71,0,0,1,3.17-8.68c3.92-5,7.62-10.1,11.56-15.05,1.17-1.47,2.79-3.77,4.87-2.21s0.13,3.56-.81,5.25c-0.62,1.12-2.17,2.2-1.25,3.51s2.8,0.66,3.63-.1c7-6.4,14.14-1.7,21,0,3.39,0.83,6.43.69,8-2,3.25-5.53,8.4-6.07,13.76-6.43,3.47-.23,6.83-0.26,10.23-1.66s6.43,1.48,9.8,1.89a47.64,47.64,0,0,0,10.92.22c1.14-.12,2.42-0.46,2.6-1.9,0.14-1.13-.75-1.81-1.54-2.41-3.58-2.71-7.13-5.48-10.82-8-4.89-3.4-5,2.16-7.41,4.54a7.09,7.09,0,0,1,1.83-8c2.35-2.3,4.78-.77,6.74.76,8.9,7,17.78,13.94,27.22,20.23,6.34,4.22,6.88,11.5,2.68,18.11a5.93,5.93,0,0,1-.55.83c-1.79,2-1.12,6.48-3.63,6.52-2.67,0-2.65-4-3.61-6.4-0.7-1.73-1.91-1.65-3.22-.82a10,10,0,0,0-2.37,1.82c-5.33,6.33-13.2,4.62-21,7.42,2.15-3.74,5-4.17,7.09-5.57,1.5-1,3.81-1.83,3.49-3.83-0.43-2.69-3.26-.2-5-1.75,2.88-3.27,7.84-1.59,11-4.33-11.27-3.34-22-4.1-33.06.29-5,2-10.67,2.63-16.1,3-7.23.53-13.44,3.23-20.7,7.87,5.57-.79,9.85-1.32,13.64,1.91-1.54.23-2.94,0.48-4.36,0.65s-3.3-.63-4,1.22c-0.73,2,.84,3.36,2.15,4.65s4,1.36,2.88,3.88c-0.93,2-3.12,1.22-4.92,1.34-4.65.3-8.44-1-11.34-4.85-1-1.35-2.44-3.24-4.55-1.88-2,1.26-2.07,3.33-1.14,5.35,2.85,6.18,5.27,12.64,8.81,18.41,2.34,3.82,6.7,6.27,9.11,10.33a2.49,2.49,0,0,0,3.1,1c1.4-.66.82-2,0.72-3.1-0.33-3.64,1.41-5,5-5.2a137.91,137.91,0,0,1,18.41.7c2.83,0.23,6.32,1,6.47,5A8.26,8.26,0,0,1,89.79,284c-2.81,1.41-6,2-8.5,4.12-0.47.41-1.44,0.94-1.7,0.21-0.58-1.63-.8-3.19-2.7-1-1.67,1.93-3.54,3.93-2.22,6.64A9.06,9.06,0,0,0,82,299.34c3.93,0.24,7.94-.49,11.89-1,1.63-.2,4.82-8.65,4.33-11-0.29-1.37-2-2.85-.45-4.09s2.56,0.95,3.9,1.38a4.49,4.49,0,0,0,3.89-.14c7-5,15.38-8.06,18.32-17.83,1.71-5.68,6.07-10.64,9.6-15.66,2-2.78,4.16-1.63,5.25,1.07C139.71,254.49,140.19,257.13,141.32,261.22ZM27,240.82c-0.36,2.17-.57,4.31,1.48,5.69a1.29,1.29,0,0,0,2-.79C31.12,243.08,28.63,242.26,27,240.82Zm75.5,52.5c0.11,1.09-.45,2.7,1.05,3,1.76,0.29,2.11-1.31,2.13-2.68s0.15-3.06-1.69-3C102.54,290.56,102.69,292.19,102.52,293.32Z"/><path d="M59.14,22.11c1,0,2.73-.32,2.86,0C64.6,28.6,74.26,28.3,75.39,36.29A9.92,9.92,0,0,0,78.8,42.8c0.16-4.41-2.77-7.36-3.42-11-0.54-3.07-.18-5.56,1.7-7.93,1.41-1.78,3.41-2.55,5.32-1.56,4.25,2.18,9.39,3.52,10.52,9.31a5.5,5.5,0,0,0,1.19,1.48c1.49-2.47-1-5.62,1.79-7.53,1.18,3.54,1.69,6.77-.08,10.46S97.06,43.28,97,47.12c0,1.7,2.15,3.63,0,5.24-2.33,1.73-2.23-2.5-4.44-2,2.16,4.95-3,6.26-5,6.78-9.52,2.53-18.9,4.61-27.83,9.52A40.24,40.24,0,0,1,41.63,71.4c-6.15.11-10.64,2.34-14.29,8.08a85.4,85.4,0,0,0-13.25,39.85c-0.77,9.63-1.92,19.23-2.8,28.85-0.12,1.33-.9,3.36,1.13,3.8,1.42,0.31,2.22-1.25,2.71-2.51,2-5.1,6.41-5.46,10.8-5.26,9.46,0.43,18.95.78,28.29,2.65,1.91,0.38,4,.74,4.07,2.93,0.25,5.13,1.46,10.32-.07,15.4-1,3.37-2.32,6.7-6.64,7.11a1.52,1.52,0,0,0-.9.4c-4,4.29-7.29,5.07-9.61-1.55-0.31-.88-1.74-1.57-2.79-2-3.45-1.29-15.68,3.45-17.69,6.77-1,1.58-2.08,3.85-3.88,3.35-2.37-.66-1.54-3.36-1.39-5.21,0.48-6,4.07-9.87,9.46-11.73,8-2.76,16.07-5.93,24.68-1.93,1.07,0.5,2.88,1.21,3.47-.53a2.74,2.74,0,0,0-2.54-3.6c-8.65-.76-17-3.37-25.56-4.28-3.74-.39-6.43,3.19-9.39,5.18s-4.05,1.3-4.91-1.63a17.93,17.93,0,0,1-1-3.34C7.63,130.07,4.38,108,8.56,85.6c1.3-7,1.74-14.09,4.4-20.77,0.88-2.2-.13-4.4-0.7-6.29a28.41,28.41,0,0,1-.7-13.11A1.88,1.88,0,0,0,10.46,43c-1.25-.56-1.5-1.87-0.61-2.31,2.77-1.35,3.55-5.27,7-5.46,3.64-.2,6-1.4,7.83-5,2.67-5.14,7.8-7.23,13.6-7.35a4.18,4.18,0,0,0,1.44-.07c1.5-5.5,6.1-3.15,9.53-4.2,4.71-1.44,7.51-.16,10,3.49,0.15,1.57.06,3-1.47,4a3.37,3.37,0,0,1-1-1c-0.36-1.25,1.34-3.1-1-3.76-2-.56-3.07.67-3.81,2.34A4,4,0,0,1,49.61,26c-2.21.86-3.81,3.66-6.77,1.93,0.22,4.57-3.77,3.61-6.17,4.89a5,5,0,0,0-2.86,4.32c0,1.27,1.1,3,2.34,2.86,1.7-.18,3.45,1.14,5.45-1.46a16.32,16.32,0,0,1,7.28-5.18c7.71-2.61,7.52-3.15,8.87-7.35,1.36,1.48.28,3.89,2.2,5.46C62.7,27.94,62.22,24.93,59.14,22.11ZM25.51,52C21.76,45,17.59,45,13.89,51.6c-0.54.95-1.74,2.07-.43,3s2.11-.48,2.75-1.34C18.79,49.78,21.66,48.57,25.51,52Zm3.8-9.82c2.58,2.94,4.72,3.35,7.52,1C34.35,40.75,32.15,41.33,29.3,42.13Z"/><path d="M183.56,62.3a54,54,0,0,0-9.7-9.7c-1-.8-2.44-2.79-3.72-1.39-1.46,1.6.8,2.45,1.79,3.39,3.33,3.17,7,6,8.67,10.65a23.8,23.8,0,0,0-11.07-8.77c1.38,2.9,4,5.5.59,8.49a2.81,2.81,0,0,0,.12,1c0,4,3,7,3.44,11.07,0.3,3,4.18,2.93,6.34-.26,1.1,2.66-.32,5-0.19,7.31-3.46-.13-6.15,4-9.48,2.4-2-1-2.61-.29-2.61.94,0,5.62-2.61,3.49-5.82.9,1,4.49.7,8.16,3.73,10.78,1.19,1,1.67,2.28.42,3.41-2.07,1.86-3.94,4.23-7,4.37-1.83.09-2.41-1.4-2.86-2.93-2.31-7.86-1.34-16.21-3.57-24.09a3.05,3.05,0,0,1,.51-2.37c2-2.5,3.42-4.76-.54-6.81-0.45-.23-0.59-1.54-0.49-2.29,0.69-5.12,1.08-10.17-1.15-15.11-0.67-1.49.76-2.74,1.5-4,1.63-2.86,3.66-5.72,1.29-9.18a1.73,1.73,0,0,1,.18-2.26c2-2.45,8.87-3.36,11.82-1.27L159,40.7c1.77,1.09,1.89,2.54.66,7.34,3.16,0.89,5.4-3.47,8.83-1.56,0.58,0.32.95-1,.39-1.87s-2.26-.82-2.61-2.72c4.19-1.09,7.8-1,11,2.64,1.9,2.19,3.92,4.38,7.2,4.93,3.88,0.66,4.69,4.44,6.16,7.28,0.82,1.58-.9,2.3-1.9,1.41C183,53,183.94,58.11,183.56,62.3Z"/><path d="M144.64,158.55a13.43,13.43,0,0,1-2.52-.85c-7.57-4.14-14.9-3.1-22.88-.49-8.94,2.92-17.78,7.59-27.85,5.3-3.3-.75-8-8-6.89-11.09a1.83,1.83,0,0,1,1.93-1.29,12.4,12.4,0,0,0,6.28-1.24c1-.47,2-0.44,2.19,1,0.66,5.23,3.33,2.08,5,1,9.4-6.4,31.18-6.91,40.55-.6,2.17,1.46,3.91,3.57,5.85,5.39,0.62,0.58,1.29,1.25.92,2.14S145.77,158.49,144.64,158.55Z"/><path d="M125.93,134.71c-1.65.7-2.22,1.14-2.8,1.16-8.59.27-15.84,4.56-23.46,7.74-3,1.26-6.2,1.15-9.31,1.25-1.44.05-3.75,0.25-4.12-1.9-0.29-1.68,1.38-2.6,2.67-3.27a78.41,78.41,0,0,1,10.36-4.9c4.36-1.49,8.94-2.06,13.32-3.85S120.65,133.12,125.93,134.71Z"/><path d="M191.66,133.75c4.34,2,3.77,6.79,6.47,6.7,2.44-.09,4.78-2.69,7.2-4.14,0.83-.5,1.79-1.25,2.74-0.56,1.21,0.88.45,2.1,0.2,3.19-0.72,3.11-2.8,5.17-5.22,7-3,2.32-6.32,4.32-7.55,8.33a3,3,0,0,1-3.55,2.11c-2-.47-1.43-2.31-1.33-3.77a2.5,2.5,0,0,1,.28-1C193.68,146.31,195.76,140.82,191.66,133.75Z"/><path d="M204.13,176c0.41-4,.58-8.67,2.24-13.11,1.13-3,2.51-3.55,5-1.07,4.32,4.34,4.21,4-.86,7.93-2.84,2.21-4.91,5.43-4,9.59,0.27,1.29,1.74,3.37-.49,3.72-1.91.31-1.65-2-1.81-3.45C204,178.6,204.13,177.6,204.13,176Z"/><path d="M181.12,268.44c-1.84,6.52-5.25,10.66-7.64,15.28a93.37,93.37,0,0,1-5.06,8c-0.62.95-1.25,2.34-2.59,1.81s-0.7-2-.4-3C167,285.21,175.12,273.38,181.12,268.44Z"/><path d="M128.91,33.25c-9.41-2.63-3.54-11.71-7.29-16.7,1.85,2.29,8-1.46,6.71,5.7C127.8,25.27,130.72,29.2,128.91,33.25Z"/><path d="M204.82,196.6c-2.45-.14-4.55-0.63-4.4-3.59,0.08-1.58.85-3.29,2.63-2.92,2.53,0.52,5.75,1.6,6.22,4.06S206.55,196.24,204.82,196.6Z"/><path d="M9.56,179.58c2.31,4.56,1.12,9.19.18,13.84C9.12,188.83,7.46,184.3,9.56,179.58Z"/><path d="M183.89,184.77c-1.56.22-2.29-.33-2.29-1.56,0-2.31,1-3.78,3.53-3.88,2-.07,4.35.49,4.06,2.55C188.82,184.63,185,182.77,183.89,184.77Z"/><path d="M218.27,185.59c0.15-2.74.29-5.49,0.48-8.23a1.12,1.12,0,0,1,1.2-1.26,2.12,2.12,0,0,1,1.37,1.21C222.24,180.48,222,183.44,218.27,185.59Z"/><path d="M107.69,36.51c-4.5-3.88-3-9.43-3.73-14.34,2.17,4.51,4.38,9,3.45,14.33h0.28Z"/><path d="M107.69,36.51h-0.28c1.51,0.11,2.65.71,2.15,2.43-0.36,1.2-1.56,1.6-2.76,1.67a1.69,1.69,0,0,1-2-1.62C104.7,37,106.09,36.61,107.69,36.51Z"/><path d="M197,204.06c-0.61,3.27,1.82,6.73-.61,10.45C194.16,210.47,196,207.24,197,204.06Z"/><path d="M52.19,10.44c2.51-1.12,4.33-.94,5.65,1a1.38,1.38,0,0,1-.51,2.11C55,14.09,53.86,12.29,52.19,10.44Z"/><path d="M78.64,144.73a1,1,0,0,1-1.29,1.13,3.86,3.86,0,0,1-3.2-2.72c-0.3-1.07.47-1.56,1.43-1.25A4.42,4.42,0,0,1,78.64,144.73Z"/><path d="M207.2,307.48c-0.41-3.61-.41-3.61,1.07-7.1C209.23,303.14,208.67,305,207.2,307.48Z"/><path d="M118.61,386.62c0.21,0.19,11.12,16.81,11.33,17,2.57-3.13,11.47-2.76,14.67-6.67,2.31,7.85,21.18-7.53,20-.67,2.39-2.13,19.61-2.8,21.33-4.33,2.06,3.41,12.39-6.72,13.66-3.67s7.28-5.46,8-2.33c0.42,0.16,6.58-7.49,7-7.33,1.65-3.45,4.07-10.85,5.67-14.33,1.77-3.87,5.67-13.12,8.33-10,2.45,2.87,5-8.3,7.67-5.67,2.11,2.06,0-9.41,2.31-9.33,2.7,0.1-.42-26.48,2.35-28a17.39,17.39,0,0,0,2.33-2c3.14,1.39,1.58-3.64,4.09-2.1,2,1.2,6.05,1.59,3.54,5.79-0.18.29,0.58,1.06,0.74,1.65,0.87,3.25,1.73,6.51,2.5,9.79,0.83,3.51.87,6.64-2.88,8.93-1.34.81-3,3.74-2.49,4.52,2.72,4.54-2.61,7.1-3.63,7.85-3.34,2.47-4,4.39-2.21,6.93l-7.83,11.13-0.74-.44c-3.08,4.35-2,13.69-4.75,17.62,3.93-1,4.14-7,7.8-8.52,7.55-3.2,7.44-3.39,14.23-.87,0.66,0.24,1.6-.19,2.38-0.39,5-1.29,4.8-5.48,4.83-9.28,0.14-17.15-7,6.87-6.92-10.27,0-2.06,10.71,3.06,11,1,12,44.33-15.33,43-3,87.67-53.67,17.33-102.72-4-158,0,1.6-3.91,3.09-7.87,4.83-11.71,2-4.44,5.52-8.62,6.1-13.21a124.74,124.74,0,0,0,.2-24.5,83.37,83.37,0,0,0-3.53-18.92c-4-12.89-8.47-25.68-13.37-38.27-3.33-8.54-6.18-19.09-14.91-22.38-5.72-2.16-7.71-.47-13-3.67-1-.62-5.86-5.73-6.33-7-2.51-6.8-3-11.46-10.07-15.4-4.31-2.4,29.74,24,43.73,18.4m81.69-30.88M172,267.18m-18.45-9c6-7.79,21.51-32.59,26.14-48.59,1.62-4.3,5.38-10.88,13.25-10.56,5.45,11.3,16.15,14.76,15,13.8,9.75,1.75,28.75-50.77,18.75-56.25-1.25-5-3.75-5-6.75-7.25,1.24-13.26-20.34,1-26.31-5.79-0.22-.25-4.8-4.41-5-4.82-1.72-3.58-11.14-23.56-13.4-28.39,5.18,1.15,18.23-14.92,18.42-20,2.3,4.1,3.55,22.7,5.86,26.8,0.06,0.16,2.25,12.42,2.33,12.54,1,1.88,1.54,2.82,2.67,5,1.24-.77.64,4.22,1.68,3.87,4.83-1.64,7.37-5.61,13.32-3.14,14.57,6,21.14,17.55,18.52,33-1.39,8.2-2.81,16.42-4.67,24.52a45.76,45.76,0,0,1-4.45,11.5c-2.26,4.15-5.72,7.66-7.86,11.86-4.82,9.45-15.63,11.93-23.63,5.08a16.3,16.3,0,0,0-2.78-1.4c-0.78,3.47-1,6.71-2.22,9.47-2.93,6.43-21.9,24.83-24.8,31.28M127.24,132m20.14-2.38-0.83-1m17.69-34.49,21.41-33.18-0.95,5.67-1.79,1.6c-2-3.3.12,8.15-1.89,4.85-0.55.57-2.45,5.36-3,5.93,4.19,3.32-12.74,0-19.51,0,5.74-6.33,1.92-13.34-6.23-11.24-2.05-.61-3.86-17.24-5.73-17.8m27.59,5.37c1.56-3.68,4-10.56,0-11,3.67,5.52,9.53,4.61,13.71,9.34,5.08,5.73,18.13,70.31,14,76-0.31.42-25.52-20.84-26.61-19.32m-60-72.71c-4.34-8.14,1.69-10.41-2.65-18.56l1.11-.69,4,3.36a18.26,18.26,0,0,0,1.82-3.64c0.72-2.88,1.16-5.82,1.72-8.74l-0.2.08,4.4,5.82L128.36,13l2.28,9.08L131.34,15c11.1,9.25,24.25,12.27,37.43,15.48-0.07.86,4.89,0.15,4.77,1.55,5.07-1.89-5.67,4-.19,7.25,2.7,1.61-46.3-4.3-42.91-3.68M77.61,32.87c-1.23-7.94-8.52-12.49-13.12-17.63,2.35-.69,3.88-1.2,5.44-1.59,5-1.23,11-.22,13.72-6.5,0.44-1,2.41-1.34,3.59-1.93L89,8.91H85.12l-3.62,8.9,8.42,2.48V24l3.6-3.28,7.69,7.08,0.92-1c-5.44-9.36-3.89-9.31-3.84-20.28l-7.36.75C97,4.36,101.12,4.8,103,8.87c3.08,6.55,5.82,13.26,8.91,19.81,1.4,3-1.73,8.67,3.29,8.91,0.7,0-2.28,3.42-1.65,4.38M11.14,71.71c2.51-7.29-.38-11.89-8.2-13.42v-3c1.33-1.32,3-2.44,3.94-4,3-5,5.8-10.11,8.5-15.27,1.54-2.94,3.31-4,5.6-2.43,2.31-2.29-12.37,20.52-9.64,19,2.52-1.35,2.92,12.81,5.61,11.76m114.7-7.18M169.27,39.3c0.45-5.47,9.86,1.67,4.08,0C175.58,43.06,166.94,35.36,169.27,39.3Z"/><path class="cls-1" d="M203.33,72.13c-1.43-6.51-10.42-12.8-15.5-18.54-4.19-4.73-7.2-10.49-10.87-16l12.55,1.5,2.85,4.35-0.3-5c3.77,1.78,6.41,3.64,7.28,7.73,0.4,1.88,2.28,3.45,3.48,5.16l2-1.24c-2.4-4.71-4.64-9.52-7.3-14.08-0.67-1.15-2.62-1.89-4.09-2.16-3.39-.62-7.46.19-10.16-1.42-5.48-3.26-9.7-.4-14.76,1.48l0.29-3.44c-13.18-3.22-26.33-6.23-37.43-15.48l-0.71,7.06L128.36,13l-2.87,2.23-4.4-5.82,5.58-.47c0-4.06.74-1.72-3.78-2.4-3.92-.59-4.22-1.31-7.55-1.31,2.17,2.93-.75,1.16,1.77,3.91,0.67,0.73,2.74.16,4.17,0.19-0.56,2.92-1,5.86-1.72,8.74a18.26,18.26,0,0,1-1.82,3.64l-4-3.36-1.11.69,13,24.43-1.86,1c-1.19-1.85-2.37-3.7-3.58-5.53-0.63-1-1.27-2.66-2-2.69-5-.24-4.86-4.62-6.26-7.59-3.09-6.55-5.83-13.26-8.91-19.81-1.91-4.07-6-4.5-12.09-1.59L89,8.91,87.23,5.22c-1.18.6-3.15,0.93-3.59,1.93-2.75,6.28-8.72,5.27-13.72,6.5-1.56.38-3.08,0.9-5.44,1.59,4.61,5.14,8,10.68,9.25,18.63-3.38-4.13-5.59-8.1-8.92-10.51-2.64-1.9-2.2-3.69-2.45-6-0.54-5-5.26-4.16-8.2-4.44-2.4-.23-6.11.23-6.47,4.67-0.11,1.41-2,3-3.52,3.88a56,56,0,0,1-7.67,3.24c-2.69,1.05-5.55,1.76-8.07,3.11A32.83,32.83,0,0,0,21,33.59c-2.29-1.55-4.06-.51-5.6,2.43-2.7,5.16-5.51,10.27-8.5,15.27-0.93,1.56-2.61,2.68-3.94,4,0-19,0-33.36,0-52.36h260V352.62c-0.29,2.06-3.82-2.07-3.83,0-0.12,17.15-.11-7.86-0.25,9.29,0,3.8.21,8-4.83,9.28-0.79.2-1.73,0.63-2.38,0.39-6.79-2.53-6.68-2.33-14.23.87-3.67,1.56-7.76,2.1-11.69,3.1l8.64-12.21,0.74,0.44,7.83-11.13c-1.82-2.53-1.13-4.46,2.21-6.93,1-.75,6.35-3.31,3.63-7.85-0.47-.78,1.15-3.71,2.49-4.52,3.75-2.29,3.71-5.41,2.88-8.93-0.77-3.28-1.63-6.53-2.5-9.79-0.16-.59-0.91-1.36-0.74-1.65,2.51-4.2-1.58-4.58-3.54-5.79-2.51-1.54-5.38-2.48-8.52-3.87,0.24-.06-0.11,0-0.39.11-2.77,1.52-5.57,4.3-8.28,4.21-2.3-.08-4.6-3.36-6.7-5.42-2.69-2.64-5.31-5.37-7.75-8.24-2.66-3.12-3.63-3-5.4.85-1.6,3.48-3.29,6.92-4.95,10.37l-1.25-.48c-0.73-3.13-1.09-6.41-2.3-9.34s-3.36-5.77-5.43-9.17l-6,5.33c1.18-6.87,5.11-12.93,2.81-20.79l-8.34,10.17-0.63-.57,8.35-25.54-1.47-.73-13.8,18.69-1.21-.67V266.5l-4,.68a5.38,5.38,0,0,1-.32-1.37c7.16-3.67,8.25-11.09,11.14-17.5s6.61-12.53,9.55-19c1.26-2.75,1.45-6,2.22-9.47a16.3,16.3,0,0,1,2.78,1.4c8,6.85,18.82,4.37,23.63-5.08,2.14-4.2,5.6-7.71,7.86-11.86a45.76,45.76,0,0,0,4.45-11.5c1.86-8.1,3.28-16.32,4.67-24.52,2.62-15.49-4-27-18.52-33-5.95-2.47-10,2.11-14.81,3.75a18.12,18.12,0,0,0-3.17,1.92m-14.3-68.84c-6.79-2.2-7.8-8.82-12-12.13l1.64-1.72,6,9.9,1.79-1.6,0.95-5.67m-2.15,58.43-53,180.1c-10.42,7.49-15.1,17.51-31,19.85,4,7.48,6.26,26.33,7.75,23.32-0.4-.51,44.33-14.2,51.32-47.31C152.65,292.82,158.51,268.72,130.44,299.44Z"/><path class="cls-1" d="M89,8.91l2-1.64,7.35-.74c-0.05,11-1.6,10.92,3.84,20.28l-0.92,1-7.69-7.08L89.92,24V20.3L81.5,17.82l3.62-8.9H89Z"/><path d="M161.61,35.78c-5.05,3.75-12.15,22.89-13.26,23.32-1.43.55-18.92-8.45-19.46-9.17-3-4-30.35-.22-33-4.43,0.39-.24-3.39-12.38-3-12.62,1.85,2.69,22.42.7,24.27,3.4,2.14,3.12,1.75,3.31,9.23-3.73Z"/><path class="cls-1" d="M171.88,64.4c7.3-.15,7.42,7.17,12.26,9.58l-1,1.05Z"/><path class="cls-1" d="M171,70.32c6.87,2.89,6.46,7.58,6.15,13.61Z"/><path d="M130.44,255.93s-14.59,12.31-25.74,12.46c-12.17,5-14.33,7.53-14.19,9.12,0.23,2.65,10.57,9.7,13.47,8.83S128.37,275.63,130.44,255.93Z"/><path d="M135.29,235.4c0.13-4.82,1.4,11.3-2.35,16.76s3.85,19.28,6.39,15c3.91-6.56,7.63-38.72,4.44-44.22C141.24,218.62,135.29,235.4,135.29,235.4Z"/><path d="M113.91,130.69c-5.79,1.32,17.17-4.15,27.69.06,3.81,2,1.82,2,5.36,5.52,3.51,1.66-16.64-3.42-23.74-.53C114.08,134.7,113.91,130.69,113.91,130.69Z"/></svg>