<svg id="tweaked_sketch" data-name="tweaked sketch" xmlns="http://www.w3.org/2000/svg" viewBox="0 0 269 450"><title>headshot_sketch</title><path d="M84.5,151.41c-1.12,3.1,3.59,10.34,6.89,11.09,10.07,2.29,18.9-2.39,27.85-5.3,8-2.6,15.32-3.65,22.88.49a13.43,13.43,0,0,0,2.52.85c1.13-.06,2.14.21,2.53-0.73s-0.3-1.56-.92-2.14c-1.93-1.82-3.67-3.92-5.85-5.39-9.37-6.31-31.15-5.81-40.55.6-1.63,1.11-4.29,4.26-5-1-0.19-1.48-1.22-1.51-2.19-1a12.4,12.4,0,0,1-6.28,1.24A1.83,1.83,0,0,0,84.5,151.41Z"/><path d="M210.5,169.73c5.06-3.94,5.18-3.59.86-7.93-2.47-2.48-3.85-2-5,1.07-1.66,4.43-1.83,9.1-2.24,13.11,0,1.62-.09,2.63,0,3.61,0.16,1.41-.1,3.76,1.81,3.45,2.23-.36.76-2.43,0.49-3.72C205.58,175.16,207.65,171.94,210.5,169.73Z"/><path d="M165.82,293.51c1.34,0.53,2-.86,2.59-1.81a93.37,93.37,0,0,0,5.06-8c2.39-4.62,5.8-8.76,7.64-15.28-6,4.94-14.16,16.77-15.69,22C165.12,291.54,164.35,292.93,165.82,293.51Z"/><path d="M200.41,193c-0.15,3,2,3.45,4.4,3.59,1.73-.36,4.9-0.11,4.45-2.45s-3.69-3.54-6.22-4.06C201.26,189.72,200.49,191.43,200.41,193Z"/><path d="M9.74,193.42c0.93-4.65,2.12-9.28-.18-13.84C7.46,184.3,9.12,188.83,9.74,193.42Z"/><path d="M183.89,184.77c1.08-2,4.93-.14,5.31-2.89,0.29-2.06-2-2.62-4.06-2.55-2.56.09-3.52,1.57-3.53,3.88C181.6,184.44,182.32,185,183.89,184.77Z"/><path d="M221.32,177.3a2.12,2.12,0,0,0-1.37-1.21,1.12,1.12,0,0,0-1.2,1.26c-0.19,2.74-.33,5.49-0.48,8.23C222,183.44,222.24,180.48,221.32,177.3Z"/><path d="M57.34,13.52a1.38,1.38,0,0,0,.51-2.11c-1.33-1.91-3.14-2.09-5.65-1C53.86,12.29,55,14.09,57.34,13.52Z"/><path d="M77.35,145.85a1,1,0,0,0,1.29-1.13,4.42,4.42,0,0,0-3.06-2.85c-1-.31-1.73.18-1.43,1.25A3.86,3.86,0,0,0,77.35,145.85Z"/><path d="M207.2,307.48c1.47-2.46,2-4.34,1.07-7.1C206.78,303.87,206.78,303.87,207.2,307.48Z"/><path d="M121.08,9.4l0.15,0.2,0.05-.28Z"/><path d="M262.94,352.62c-0.29,2.06-11-3.06-11-1-0.12,17.15,7.06-6.87,6.92,10.27,0,3.8.21,8-4.83,9.28-0.79.2-1.73,0.63-2.38,0.39-6.79-2.53-6.68-2.33-14.23.87-3.67,1.56-3.87,7.51-7.8,8.52,2.78-3.93,1.67-13.28,4.75-17.62l0.74,0.44,7.83-11.13c-1.82-2.53-1.13-4.46,2.21-6.93,1-.75,6.35-3.31,3.63-7.85-0.47-.78,1.15-3.71,2.49-4.52,3.75-2.29,3.71-5.41,2.88-8.93-0.77-3.28-1.63-6.53-2.5-9.79-0.16-.59-0.91-1.36-0.74-1.65,2.51-4.2-1.58-4.58-3.54-5.79-2.51-1.54-10,1.06-13.1-.33,0,0,0,0,0,.06s0,0,0-.06c-4.42,4.2-5.65,2.48-5.49.62,0.28-3.3-5.94,9.38-8,6-1.72,1.53-21.52,15.23-32.75,24-4.23-1.56-31.09,26.37-38.41,28.63-3.2,3.9-4.64,5.49-16.67,9.41-10.62-2.88-5.41,9.88-13.75,13.26L99.42,317.39c5.55-.63,13.08-6,16.84-9.86,4.37-3.29,14.94-10.48,18.24-13.53l16.63-11.18a2.77,2.77,0,0,0,2.77-2.39c0.55-2.61,2.6-4.12,4.35-5.9,5.46-5.53,11.1-11,12.82-19.09,6.45-8.22,19-21,21.33-26.1,1.26-2.75,1.45-6,2.22-9.47a16.3,16.3,0,0,1,2.78,1.4c8,6.85,18.82,4.37,23.63-5.08,2.14-4.2,5.6-7.71,7.86-11.86a45.76,45.76,0,0,0,4.45-11.5c1.86-8.1,3.28-16.32,4.67-24.52,2.62-15.49-4-27-18.52-33-4.83-2-7.41.24-10.79,2a1.49,1.49,0,0,0-.64-1.57c-0.93-.67-1.85,0-2.67.51-0.13-1.07-.3-2.07-0.9-1.69-1.13-2.14-1.68-3.08-2.67-5,3.61-5-5.85-54.67-11.7-71.14a1.1,1.1,0,0,0,.48-1.73c-1.47-2.84-2.28-6.62-6.16-7.28-3.28-.55-5.3-2.75-7.2-4.93-3.2-3.68-6.81-3.73-11-2.64,0.36,1.9,2,1.76,2.61,2.72s0.19,2.19-.39,1.87c-3.44-1.91-5.67,2.45-8.83,1.56,1.23-4.8,1.11-6.25-.66-7.34l3-1.84c4.3,0.4,7.91.68,9.88,0.72,1.32,0.79,2.41,1.34,1.59-.12,0,0,0-.09-0.08-0.15,3.88,1.12.92-1.72-1.59-2.06-0.39-3.14,5.88-6.72,1.78-5.19,0.12-1.4-4.85-.69-4.77-1.55-13.18-3.22-26.33-6.23-37.43-15.48l-0.71,7.06L128.36,13l-2.87,2.23L121.23,9.6c-0.53,2.83-1,5.67-1.67,8.46a18.26,18.26,0,0,1-1.82,3.64l-4-3.36-1.11.69c3.87,7.27-.51,9.86,1.59,16.13-0.57-.09-1.21-0.16-1.89-0.23-0.21-2,.47-4.54-0.34-6.25-3.09-6.55-5.83-13.26-8.91-19.81C101.12,4.8,97,4.37,91,7.27h0L89,8.91,87.23,5.22c-1.18.6-3.15,0.93-3.59,1.93-2.75,6.28-8.72,5.27-13.72,6.5-1.56.38-3.08,0.9-5.44,1.59,3.36,3.74,8.14,7.19,11,11.85a11,11,0,0,0-.06,4.67C76,35.43,79,38.38,78.8,42.8a9.92,9.92,0,0,1-3.41-6.51C74.26,28.3,64.6,28.6,62,22.12c-0.13-.33-1.8,0-2.8,0-2.47-3.62-5.27-4.89-10-3.45-3.43,1-8-1.3-9.53,4.2a4.18,4.18,0,0,1-1.44.07c-5.81.12-10.94,2.2-13.6,7.35a8.6,8.6,0,0,1-3.83,4.07c0.41-.8.51-1.14,0.12-0.75-2.15-1.46-3.84-.63-5.31,1.92-2.49.9-3.39,4-5.81,5.22-0.9.44-.64,1.75,0.61,2.31a2.13,2.13,0,0,1,.83.6q-2.14,3.86-4.4,7.66c-0.93,1.56-2.61,2.68-3.94,4v3c6.22,1.22,9.31,4.37,9.06,9.27-1.83,5.87-2.32,12-3.44,18-4.18,22.36-.93,44.46,1,66.64a17.93,17.93,0,0,0,1,3.34c0.86,2.93,2,3.6,4.91,1.63s5.65-5.58,9.39-5.18c8.58,0.9,16.91,3.52,25.56,4.28a2.74,2.74,0,0,1,2.54,3.6c-0.59,1.74-2.4,1-3.47.53-8.61-4-16.69-.83-24.68,1.93-5.39,1.86-9,5.73-9.46,11.73-0.15,1.85-1,4.55,1.39,5.21,1.8,0.5,2.92-1.77,3.88-3.35,2-3.31,14.24-8.06,17.69-6.77,1.05,0.39,2.48,1.08,2.79,2,2.32,6.62,5.63,5.84,9.61,1.55a1.52,1.52,0,0,1,.9-0.4c4.32-.41,5.63-3.74,6.64-7.11,1.52-5.08.31-10.27,0.07-15.4-0.11-2.19-2.17-2.55-4.08-2.93-9.34-1.87-18.83-2.22-28.29-2.65-4.39-.2-8.82.16-10.8,5.26-0.49,1.26-1.29,2.82-2.71,2.51-2-.44-1.25-2.47-1.13-3.8,0.88-9.62,2-19.22,2.8-28.85A85.39,85.39,0,0,1,27.33,79.48c3.65-5.74,8.14-8,14.29-8.08a40.24,40.24,0,0,0,18.16-4.76c8.92-4.91,18.31-7,27.83-9.52,1.94-.51,7.11-1.83,5-6.78,2.21-.48,2.12,3.75,4.44,2,2.17-1.61,0-3.54,0-5.24,0-.26,0-0.52,0-0.77,5.78,2.8,29.17-.08,31.9,3.57,0.54,0.72,18,9.72,19.46,9.17a3.42,3.42,0,0,0,.79-1.18c1,4.49,2,9.28,3.06,9.77l-0.09.68c-0.1.76,0,2.06,0.49,2.29,4,2.05,2.53,4.32.54,6.81a3.05,3.05,0,0,0-.51,2.37c2.23,7.88,1.25,16.23,3.57,24.09,0.45,1.53,1,3,2.86,2.93,3.08-.14,5-2.51,7-4.37,1.25-1.13.77-2.38-.42-3.41-3-2.62-2.73-6.29-3.73-10.78,3.21,2.59,5.83,4.72,5.82-.9,0-1.23.59-1.91,2.61-.94,1.55,0.75,3,.25,4.37-0.48l0.49,24.31a0.64,0.64,0,0,1,.67,0,2.69,2.69,0,0,1-.67,0c2.26,4.83,11.68,24.81,13.4,28.39,0.2,0.41,4.78,4.57,5,4.82,0.06,0.06.12,0.11,0.18,0.17a25.77,25.77,0,0,1-2.91,8,2.5,2.5,0,0,0-.28,1c-0.09,1.46-.63,3.29,1.33,3.77a3,3,0,0,0,3.55-2.11c1.22-4,4.56-6,7.55-8.33,0.45-.35.88-0.71,1.3-1.08,7.83-1.33,16.38-4.11,15.59,4.38,3,2.25,5.5,2.25,6.75,7.25,10,5.48-9,58-18.75,56.25,0.95,0.77-5.6-1.27-11.07-7.79a6.16,6.16,0,0,1,.09-0.94c-0.08.25-.16,0.51-0.24,0.76A28.86,28.86,0,0,1,193,199c-7.87-.32-11.63,6.26-13.25,10.56-4.46,15.41-19,39-25.44,47.66l-2.12.11c6-8.47,7.87-17.58,9.28-26.7,1.73-11.2-2.73-22.28-9.64-24.58,6.71,19.9-.7,36.86-10.27,54.76,2.46-10,4.21-27.3,3.06-34.88a11.4,11.4,0,0,0-5-12.59c-9.44-6.29-18.32-13.26-27.22-20.23-2-1.53-4.38-3.06-6.74-.76a7.09,7.09,0,0,0-1.83,8c2.44-2.37,2.52-7.94,7.41-4.54,3.69,2.57,7.23,5.33,10.82,8,0.79,0.6,1.68,1.28,1.54,2.41-0.18,1.44-1.46,1.78-2.6,1.9a47.64,47.64,0,0,1-10.92-.22c-3.37-.41-6.52-3.24-9.8-1.89s-6.75,1.43-10.23,1.66c-5.36.36-10.51,0.9-13.76,6.43-1.58,2.7-4.63,2.84-8,2-6.91-1.69-14-6.4-21,0-0.84.76-2.71,1.42-3.63,0.1s0.63-2.39,1.25-3.51c0.94-1.69,2.94-3.65.81-5.25s-3.7.74-4.87,2.21c-3.94,4.95-7.63,10.09-11.56,15.05A12.71,12.71,0,0,0,26,233.41c0.07,1.64.07,3.61-1.58,4.49-2.17,1.17-2.67-1.27-3.81-2.26s-2.26-1.69-3.57-.74c-1.5,1.08-.63,2.42.1,3.52,1.16,1.72,1.35,3.71,1.89,5.63,1.23,4.29,2.35,8.54,4.76,12.49,6.35,10.4,15.08,18.48,24.34,26.05,4.65,3.81,8.55,8.22,10,13.95,2.46,10,10.55,13.07,18.6,16a44.66,44.66,0,0,0,9.78,2.16c4.86,4.73,7.14,12.45,9.69,19,4.9,12.59,9.32,25.38,13.37,38.27a83.36,83.36,0,0,1,3.53,18.92,124.74,124.74,0,0,1-.2,24.5c-0.59,4.58-4.09,8.77-6.1,13.21-1.74,3.85-3.23,7.8-4.83,11.71,55.28-4,104.33,17.33,158,0C247.61,395.62,274.94,397,262.94,352.62ZM169.53,38.27a3.06,3.06,0,0,0-.25,1C168.58,38.13,168.86,38,169.53,38.27ZM11.14,51.89c0,0.26,0,.53.05,0.79C10.95,52.74,10.95,52.45,11.14,51.89Zm5.06,1.37c-0.64.86-1.5,2.23-2.75,1.34s-0.11-2.06.43-3C17.59,45,21.76,45,25.51,52,21.66,48.57,18.79,49.78,16.2,53.26ZM29.3,42.13c2.84-.8,5-1.39,7.52,1C34,45.48,31.89,45.08,29.3,42.13Zm19.57-8.79a16.32,16.32,0,0,0-7.28,5.18c-2,2.6-3.74,1.28-5.45,1.46-1.24.13-2.3-1.59-2.34-2.86a5,5,0,0,1,2.86-4.32c2.41-1.27,6.39-.32,6.17-4.89,3,1.73,4.56-1.07,6.77-1.93A4,4,0,0,0,52,23.66c0.74-1.68,1.77-2.91,3.81-2.34,2.38,0.66.67,2.51,1,3.76a3,3,0,0,0,.92,1C56.4,30.2,56.53,30.75,48.87,33.34Zm11.07-1.88c-1.88-1.55-.88-3.9-2.13-5.38,1.46-.92,1.57-2.34,1.43-3.87C62.22,25,62.67,28,59.94,31.46Zm110.2,19.75c1.28-1.4,2.7.59,3.72,1.39l1,0.81c-0.25.68-.51,1.32-0.75,1.88l0,1.38c-0.74-.69-1.49-1.37-2.23-2.07C170.94,53.67,168.68,52.82,170.14,51.21Zm-52.31-14,4-.52C119.42,38.84,118.86,38.69,117.83,37.25ZM30.47,245.73a1.29,1.29,0,0,1-2,.79c-2-1.38-1.84-3.53-1.48-5.69C28.63,242.26,31.12,243.08,30.47,245.73ZM93.27,281a32.66,32.66,0,0,0,4,2.88c-0.49,1.09.73,2.3,1,3.44,0.5,2.37-2.7,10.82-4.33,11-4,.49-8,1.22-11.89,1A9.06,9.06,0,0,1,74.67,294c-1.33-2.71.55-4.7,2.22-6.64,1.9-2.2,2.13-.64,2.7,1,0.26,0.73,1.24.2,1.7-.21,2.47-2.15,5.69-2.71,8.5-4.12A9,9,0,0,0,93.27,281Zm12.44,12.58c0,1.37-.38,3-2.13,2.68-1.5-.25-0.94-1.86-1.05-3,0.17-1.13,0-2.76,1.5-2.78C105.86,290.53,105.73,292.3,105.71,293.59ZM43.08,248.79c-0.93-2-.82-4.09,1.14-5.35,2.11-1.36,3.54.53,4.55,1.88,2.9,3.86,6.69,5.15,11.34,4.85,1.8-.12,4,0.71,4.92-1.34,1.14-2.52-1.7-2.72-2.88-3.88s-2.88-2.61-2.15-4.65c0.66-1.85,2.54-1,4-1.22s2.82-.42,4.36-0.65c-3.8-3.23-8.07-2.7-13.64-1.91,7.26-4.64,13.46-7.33,20.7-7.87,5.43-.4,11.11-1,16.1-3,11-4.39,21.79-3.63,33.06-.29-3.17,2.74-8.13,1.06-11,4.33,1.69,1.55,4.53-.95,5,1.75,0.32,2-2,2.83-3.49,3.83-2.11,1.4-4.94,1.83-7.09,5.57,7.76-2.8,15.63-1.08,21-7.42a10,10,0,0,1,2.37-1.82c1.32-.83,2.52-0.91,3.22.82a24.65,24.65,0,0,1,.83,3v0c0.08,0.32.17,0.63,0.27,0.93,0.13,3.26-.05,10.22-1.82,14.35-0.09.11-.17,0.21-0.26,0.34-1.41,2-2.95,4-4.4,6-3.87,3-15.27,11.25-24.38,11.37A71.44,71.44,0,0,0,94,273.52c-1.17-1.95-3.68-2.41-5.82-2.58a137.92,137.92,0,0,0-18.41-.7c-3.56.19-5.3,1.56-5,5.2,0.1,1.12.68,2.44-.72,3.1a2.49,2.49,0,0,1-3.1-1c-2.41-4.06-6.77-6.51-9.11-10.33C48.35,261.42,45.93,255,43.08,248.79Zm179.37,81c-2.3-.08-1.18,13.28-3.29,11.22-2.69-2.64,1.23-1.38-1.22-4.25-2.66-3.12-15.58,22.08-17.1,27.17-4.51,3.31-4.58,6.31-6.23,9.76-0.42-.16-4.09,11-7.18,8.35-1.86-2.33-3.15-7.71,6.09-14.6,5.91-7.68,13.19-18.74,19.71-29.27,3.28-5.3,13.08-16.85,18.06-24.71-1.2,3.21,5.88,12.66,5.77,12.72-1.08.59-4.25-4.31-7.22-.93-2.39,2.72-1.79,3.93-4,6.2S223.26,329.81,222.45,329.78Z"/><path d="M141.6,130.75c-7.43-3-21-1.12-26.37-.24a5.88,5.88,0,0,0-2.63.42c-4.38,1.79-9,2.36-13.32,3.85a78.41,78.41,0,0,0-10.36,4.9c-1.3.67-3,1.6-2.67,3.27,0.38,2.16,2.68,2,4.12,1.9,3.11-.11,6.3,0,9.31-1.25,7.61-3.18,14.87-7.48,23.46-7.74a3.9,3.9,0,0,0,1.42-.53c8-1.92,25.71,2.51,22.4.94C143.42,132.76,145.4,132.71,141.6,130.75Z"/></svg>